<?xml version="1.0" encoding="UTF-8"?>
<!DOCTYPE svg PUBLIC "-//W3C//DTD SVG 1.1//EN" "http://www.w3.org/Graphics/SVG/1.1/DTD/svg11.dtd">
<!-- Creator: CorelDRAW X6 -->
<svg xmlns="http://www.w3.org/2000/svg" xml:space="preserve" width="43.3492mm" height="43.3492mm" version="1.1" style="shape-rendering:geometricPrecision; text-rendering:geometricPrecision; image-rendering:optimizeQuality; fill-rule:evenodd; clip-rule:evenodd"
viewBox="0 0 4335 4335"
 xmlns:xlink="http://www.w3.org/1999/xlink">
 <defs>
  <style type="text/css">
   <![CDATA[
    .fil6 {fill:none}
    .fil0 {fill:#01AF56}
    .fil1 {fill:#7BC24D}
    .fil3 {fill:#B72E30}
    .fil2 {fill:#ED3237}
    .fil4 {fill:#FEFEFE}
    .fil5 {fill:#373435;fill-rule:nonzero}
   ]]>
  </style>
 </defs>
 <g id="Capa_x0020_1">
  <metadata id="CorelCorpID_0Corel-Layer"/>
  <g id="_746764896">
   <g>
    <path class="fil0" d="M3773 3250c-744,744 -1950,744 -2694,0 -744,-744 -744,-1950 0,-2694l2694 2694z"/>
    <path class="fil1" d="M3779 3256l0 0c-744,744 -1950,744 -2694,0 -222,-222 -378,-486 -468,-766 88,168 202,326 343,467 715,714 1856,742 2604,84l215 215z"/>
   </g>
   <path class="fil2" d="M3827 2310c61,35 81,112 46,173 -35,61 -112,82 -173,47 -34,-20 -127,-193 -157,-237 47,3 251,-2 284,17z"/>
   <path class="fil2" d="M3636 1822c64,-30 139,-2 169,61 30,64 2,140 -61,169 -36,17 -231,-6 -284,-8 29,-36 142,-206 176,-222z"/>
   <path class="fil2" d="M3250 1525c12,-69 78,-115 147,-103 69,12 115,78 103,147 -7,39 -137,186 -169,228 -13,-45 -88,-235 -81,-272z"/>
   <path class="fil2" d="M3471 2918c-579,579 -1517,579 -2096,0 -578,-579 -578,-1517 0,-2095l2096 2095z"/>
   <path class="fil3" d="M1777 1224c-94,58 -183,128 -264,210 -293,292 -437,677 -434,1060 -254,-548 -156,-1219 296,-1671l402 401z"/>
   <path class="fil4" d="M1600 2873c-50,50 -130,50 -180,0 -49,-49 -49,-130 0,-179 28,-28 219,-73 270,-90 -15,44 -63,243 -90,269z"/>
   <path class="fil4" d="M2039 3088c-24,66 -97,100 -163,76 -66,-24 -100,-97 -76,-163 14,-37 168,-159 207,-195 5,46 45,246 32,282z"/>
   <path class="fil4" d="M2528 3097c6,69 -46,131 -116,137 -70,6 -131,-45 -137,-115 -4,-39 84,-215 104,-264 25,40 145,204 149,242z"/>
   <path class="fil4" d="M2974 2898c35,61 15,139 -46,174 -61,35 -139,14 -174,-47 -19,-34 -13,-230 -17,-283 40,26 219,124 237,156z"/>
   <path class="fil4" d="M1420 2694c-49,49 -49,130 0,179 50,50 130,50 180,0 28,-27 73,-219 90,-269 -45,15 -243,63 -270,90z"/>
   <path class="fil4" d="M1206 2254c-66,24 -100,97 -76,163 24,66 97,100 163,76 36,-13 158,-167 195,-206 -47,-5 -247,-45 -282,-33z"/>
   <path class="fil4" d="M1197 1766c-70,-6 -132,45 -138,115 -6,70 46,132 116,138 39,3 214,-85 264,-105 -40,-24 -205,-145 -242,-148z"/>
   <path class="fil4" d="M1395 1319c-60,-35 -138,-14 -173,47 -35,60 -14,138 46,173 34,20 231,14 284,17 -26,-39 -124,-218 -157,-237z"/>
   <path class="fil5" d="M3836 3313c-389,388 -898,583 -1407,583 -509,0 -1019,-195 -1407,-583 -388,-389 -583,-898 -583,-1407 0,-509 195,-1018 583,-1407l60 -60 60 60 2694 2694 60 60 -60 60zm-1407 413c439,0 879,-158 1226,-474l-2572 -2572c-316,347 -474,786 -474,1226 0,466 177,932 533,1287 355,356 821,533 1287,533z"/>
   <path class="fil5" d="M3516 2963c-302,302 -697,452 -1093,452 -395,0 -791,-150 -1092,-452 -302,-302 -453,-697 -453,-1093 0,-395 151,-791 453,-1092l44 -45 45 45 2096 2095 45 45 -45 45zm-1093 326c343,0 687,-124 957,-372l-2004 -2004c-247,271 -371,614 -371,957 0,363 138,726 415,1003 277,277 640,416 1003,416z"/>
  </g>
  <rect class="fil6" width="4335" height="4335"/>
  <path class="fil5" d="M2243 280c-5,-23 -8,-36 -9,-40 -5,-13 -15,-20 -30,-20 -10,0 -17,7 -21,22 -3,7 -4,15 -4,23 0,29 22,71 68,126 45,56 68,102 68,137 0,27 -9,54 -28,81 -18,27 -44,41 -76,41 -25,0 -47,-9 -68,-26 -20,-18 -32,-41 -35,-70l-2 -29 67 -10c4,23 7,36 9,40 5,13 15,20 29,20 8,0 14,-4 18,-11 6,-12 9,-24 9,-36 0,-21 -11,-45 -33,-73 -21,-28 -43,-56 -64,-83 -23,-35 -35,-70 -35,-104 0,-15 2,-31 6,-47 15,-51 46,-76 94,-76 24,0 47,9 67,26 20,17 31,40 34,70l2 28 -66 11zm358 340c-6,18 -18,27 -34,27 -15,0 -26,-8 -33,-23 -19,15 -39,23 -61,23 -21,0 -39,-8 -53,-25 -15,-16 -22,-39 -22,-69l0 -4c0,-80 28,-120 85,-120 16,0 32,3 49,11 0,-33 -7,-51 -21,-57 -11,-2 -22,-5 -33,-7 -9,-8 -14,-18 -14,-31 0,-21 13,-32 39,-32 34,0 60,13 78,40 14,22 20,51 20,85l0 182zm-69 -72l0 -40c-18,-8 -31,-13 -40,-13 -16,0 -24,18 -24,54l0 10c0,13 7,18 22,17 18,-1 32,-10 42,-28zm364 72c-7,18 -19,27 -35,27 -16,0 -28,-9 -35,-27l0 -207c0,-11 -6,-16 -18,-16 -19,0 -34,9 -45,27l0 196c-7,18 -19,27 -36,27 -17,0 -28,-9 -35,-27l0 -267c7,-17 19,-27 36,-27 14,0 25,8 32,24 19,-16 39,-24 60,-24 22,0 39,9 54,25 14,16 22,39 22,70l0 199zm294 0c-7,18 -18,27 -35,27 -14,0 -25,-8 -33,-23 -19,15 -39,23 -60,23 -21,0 -39,-8 -54,-25 -14,-17 -22,-41 -22,-73l0 -123c0,-82 29,-123 86,-123 15,0 31,3 48,10l0 -141c7,-18 19,-27 35,-27 17,0 28,9 35,27l0 448zm-70 -74l0 -160c-17,-10 -30,-14 -39,-14 -16,0 -24,18 -24,55l0 131c0,11 5,16 17,16 20,0 36,-9 46,-28zm235 -288c0,10 -3,19 -10,26 -8,7 -17,11 -27,11 -10,0 -19,-4 -26,-11 -8,-7 -11,-16 -11,-26 0,-11 3,-19 11,-26 7,-7 16,-10 26,-10 10,0 19,3 27,10 7,7 10,15 10,26zm0 372c-5,11 -17,17 -37,17 -21,0 -33,-6 -37,-17l0 -284c4,-10 16,-15 37,-15 20,0 32,5 37,15l0 284zm268 -10c-7,18 -19,27 -35,27 -15,0 -26,-8 -33,-23 -19,15 -39,23 -61,23 -21,0 -39,-8 -53,-25 -15,-16 -22,-39 -22,-69l0 -4c0,-80 28,-120 86,-120 15,0 31,3 48,11 0,-33 -7,-51 -20,-57 -11,-2 -22,-5 -34,-7 -9,-8 -14,-18 -14,-31 0,-21 13,-32 39,-32 34,0 60,13 78,40 14,22 21,51 21,85l0 182zm-70 -72l0 -40c-18,-8 -31,-13 -40,-13 -16,0 -24,18 -24,54l0 10c0,13 8,18 22,17 18,-1 32,-10 42,-28zm-1195 700c-6,18 -18,28 -35,29 -17,0 -29,-9 -37,-27l0 -270 -31 75c-7,6 -15,9 -24,9 -8,0 -16,-3 -23,-10l-30 -74 0 268c-7,19 -19,29 -36,29 -17,0 -29,-9 -36,-27l0 -443c7,-19 19,-28 36,-28 16,0 27,8 34,24l57 129 54 -129c8,-16 20,-24 35,-24 18,0 30,9 36,28l0 441zm220 188c-18,-7 -27,-21 -27,-39 0,-10 4,-20 10,-28 7,-8 11,-20 11,-37l0 -52c-16,5 -30,8 -42,8 -54,0 -81,-42 -81,-124l0 -178c7,-20 19,-30 36,-30 17,0 29,10 36,30l0 178c0,34 6,51 17,51 6,0 18,-4 34,-13l0 -216c7,-20 19,-30 36,-30 17,0 29,10 35,30l0 356c0,20 -4,40 -12,58 -13,24 -31,36 -53,36zm293 -527c-4,-23 -7,-36 -9,-39 -5,-14 -15,-20 -29,-20 -11,0 -18,7 -22,21 -3,8 -4,16 -4,23 0,29 23,72 68,127 45,56 68,101 68,137 0,26 -9,53 -27,81 -19,27 -44,41 -77,41 -24,0 -47,-9 -67,-27 -21,-17 -33,-41 -35,-70l-3 -28 67 -10c4,23 7,36 9,39 5,14 15,21 29,21 8,0 14,-4 18,-12 6,-12 9,-24 9,-36 0,-20 -11,-44 -32,-72 -22,-29 -44,-56 -65,-84 -23,-35 -35,-69 -35,-103 0,-16 3,-31 7,-48 14,-50 45,-75 93,-75 25,0 47,8 67,26 20,17 32,40 34,70l3 28 -67 10zm338 394c-6,0 -12,-2 -19,-5l-23 -25c-12,5 -26,8 -42,8 -66,0 -99,-44 -99,-130l0 -247c0,-86 33,-129 99,-129 35,0 61,14 79,41 15,23 23,52 23,88l0 247c0,24 -4,46 -11,65l26 28c5,13 4,26 -2,39 -7,14 -17,20 -31,20zm-54 -140c0,-4 0,-8 0,-12l0 -247c0,-39 -10,-58 -30,-58 -19,0 -28,19 -28,58l0 247c0,34 7,53 21,58 -2,-12 0,-23 8,-33 8,-10 17,-14 29,-13zm352 114l-110 0c-12,0 -21,-6 -28,-16 -8,-10 -11,-21 -11,-33l0 -421c6,-19 18,-28 34,-28 17,0 28,9 35,28l0 393 80 0c17,7 25,20 25,38 0,18 -8,31 -25,39zm189 -390c0,11 -4,19 -11,26 -7,8 -16,11 -26,11 -11,0 -19,-3 -27,-11 -7,-7 -11,-15 -11,-26 0,-10 4,-18 11,-25 8,-7 16,-10 27,-10 10,0 19,3 26,10 7,7 11,15 11,25zm0 373c-5,11 -18,17 -37,17 -21,0 -33,-6 -38,-17l0 -284c5,-11 17,-16 38,-16 19,0 32,5 37,16l0 284z"/>
 </g>
</svg>
